# xmcd CD database file
#
# Track frame offsets:
#	150
#	11494
#	23644
#	42243
#	56511
#	70670
#	84824
#	95964
#	109714
#	127913
#	147522
#	167310
#	181762
#	192833
#	205191
#	220180
#	233283
#	256055
#	270213
#	288559
#	302668
#	316165
#
# Disc length: 4411 seconds
#
# Revision: 1
# Processed by: cddbd v1.5PL3 Copyright (c) Steve Scherf et al.
# Submitted via: CDex 1.50
#
DISCID=18113916
DTITLE=Sidney Bechet - The Creole Prodigy 2
DYEAR=1900
DGENRE=Jazz
TTITLE0=Blues in thirds
TTITLE1=Egyptian Fantasy
TTITLE2=The Sheik of Araby
TTITLE3=When it's Sleepy Time Down South
TTITLE4=Georgia CAbin
TTITLE5=Strange Fruit
TTITLE6=Blues in the Air
TTITLE7=The Mooche
TTITLE8=Mood Indigo
TTITLE9=Blue Horizon
TTITLE10=Up in Sydney's Flat
TTITLE11=House Party
TTITLE12=Blood on the Moon
TTITLE13=Gone away blues
TTITLE14=Love for Sale
TTITLE15=Blame it on the Blues
TTITLE16=Tommy's Blues
TTITLE17=Laura
TTITLE18=I'm Speaking My Mind
TTITLE19=I Found a New Baby
TTITLE20=Fidgety Feet
TTITLE21=At a Georgia Camp Meeting
EXTD=
EXTT0=
EXTT1=
EXTT2=
EXTT3=
EXTT4=
EXTT5=
EXTT6=
EXTT7=
EXTT8=
EXTT9=
EXTT10=
EXTT11=
EXTT12=
EXTT13=
EXTT14=
EXTT15=
EXTT16=
EXTT17=
EXTT18=
EXTT19=
EXTT20=
EXTT21=
PLAYORDER=
